<svg width="534" height="534" viewBox="0 0 534 534" xmlns="http://www.w3.org/2000/svg"><path d="M292.65 117.222c3.137-3.137 5.522-6.437 8.707-8.501 5.282-3.422 10.857-6.646 16.731-8.81 4.278-1.576 9.047-5.028 13.902-1.1 1.381 1.118 2.721 2.612 3.395 4.22 3.359 8.02 4.935 16.194 1.759 24.767-.798 2.154 1.941 4.52 4.141 3.514 5.632-2.577 11.832-3.14 17.512-5.16 5.207-1.853 9.296 1.139 13.804 1.63 2.832.309 6.155 4.324 5.328 9.176-1.327 7.786-3.661 15.206-7.696 21.945-3.17 5.295-6.968 10.214-10.469 15.312-.212.309-.257.733-.38 1.103.709.091 1.464.388 2.118.239 3.291-.749 9.159.466 11.307 2.148 5.904 4.621 3.629 10.93 2.845 16.439-.514 3.612-3.112 7.123-5.369 10.251-5.006 6.936-11.531 12.404-18.822 16.745-2.29 1.364-3.187 2.46-3.56 5.044-.669 4.639-4.106 8.419-7.525 10.56-7.347 4.603-15.779 7.441-23.303 11.803-4.295 2.491-8.377 6.036-11.338 10.013-9.772 13.123-22.455 12.366-32.905 4.231-3.819-2.973-4.631-8.432-5.025-13.536-.28-3.63-1.468-7.201-2.393-10.762-.141-.544-1.053-.888-1.608-1.324-.203.701-.784 1.586-.548 2.075 2.101 4.349 1.831 9.004 1.409 13.504-.507 5.41-1.859 10.736-2.676 16.125-.345 2.275-.139 4.629-.392 6.924-.328 2.969-1.007 5.904-1.235 8.877-.08 1.042.479 2.413 1.23 3.125.398.379 2.066-.036 2.753-.595a184.676 184.676 0 0 0 9.25-8.028c3.894-3.615 13.55-4.286 17.502-.769 1.129 1.005 1.799 3.043 1.863 4.64.316 7.967-3.602 14.312-8.659 19.908-4.734 5.236-9.62 10.43-15.036 14.923-4.434 3.679-9.453 7.162-16.011 4.276-2.569-1.13-3.368 1.031-4.22 2.969-2.53 5.759-4.178 11.809-7.095 17.502-3.579 6.982-7.182 13.859-11.722 20.254-8.698 12.252-17.216 24.647-27.42 35.733-1.48 1.608-3.509 2.782-5.448 3.863-.856.476-2.12.218-3.199.293.141-1.232-.19-3.037.498-3.606 5.756-4.75 7.047-13.061 13.712-17.018.567-7.124 8.474-9.414 10.311-16.192 1.348-4.97 4.991-9.754 8.709-13.544 5.937-6.052 7.952-14.092 12.202-20.951 1.386-2.236 2.259-4.817 3.176-7.311 4.228-11.493 6.783-23.424 9.561-35.326 2.878-12.329 5.105-24.596 4.716-37.344-.184-6.043.967-12.124 1.398-18.196.056-.776-.585-1.601-.903-2.403-.729.745-2.002 1.433-2.087 2.246-.27 2.589.099 5.243-.133 7.839-1.256 14.04-14.985 26.269-26.951 25.918-7.017-.206-11.847-3.739-15.354-9.356-1.019-1.632-2.629-3.155-.323-5.93 1.781-2.142.993-6.254 1.902-9.326 1.036-3.498 1.678-7.311 5.047-9.722.668-.478.785-1.727 1.156-2.62-.938-.263-1.862-.69-2.814-.763-7.696-.592-15.07-4.814-15.888-10.275-1.022-6.828-.256-13.641 4.867-19.101 2.488-2.651 6.456-4.938 7.115-7.964.554-2.551-2.871-5.859-4.242-8.961-3.402-7.695-6.918-15.188-3.309-24.137 3.172-7.863 8.152-15.07 15.613-17.056 8.8-2.342 12.303-8.516 15.709-14.872 3.195-5.96 7.249-10.854 11.971-15.432 8.163-7.916 28.722-7.343 33.817 7.866.354 1.057.853 2.065 1.284 3.096.659-.828 1.157-1.941 2.011-2.425 1.673-.948 3.545-1.545 5.727-2.68Zm-56.154 26.31 1.456.115c-.485-.3-.971-.6-1.456-1.686l-1.456-.115c.486.3.971.6 1.456 1.686Zm91.103-7.854c1.315-5.004 2.519-10.098 3.707-15.043 1.196-4.977-.57-7.943-2.097-11.539-1.717-4.039-3.934-5.04-7.419-3.712-13.593 5.179-23.839 14.8-33.219 25.46-1.553 1.764-2.634 4.16-3.266 6.448-.482 1.747-.925 4.067 2.708 3.983 6.078-.139 11.619 2.619 16.269 5.95 6.22 4.455 12.033 9.733 17.112 15.463 7.002 7.902 8.454 17.633 4.938 27.458-2.351 6.567-5.893 12.759-9.374 18.849-1.853 3.242-4.18 6.726-7.209 8.692-11.312 7.347-23.841 12.121-37.107 14.422-4.437.77-3.479 2.334-2.339 4.946.868 1.992 2.375 4.153 2.166 6.084-.631 5.841 2.849 9.522 6.225 13.167 4.473 4.828 13.775 4.451 18.225-.445 1.216-1.337 1.654-2.58-.801-3.218-.897-.233-1.716-1.005-2.425-1.682-2.413-2.304-4.627-4.631.454-6.494.668-.245 1.185-1.02 1.671-1.63 4.04-5.071 4.101-4.875 10.208-3.249 1.975.526 3.882 2.037 6.476.862 4.834-2.19 10.022-3.59 14.888-5.718 2.828-1.237 5.316-3.25 7.958-4.914-2.783-.227-5.566-.627-8.35-.632-2.765-.006-5.408-.13-5.619-3.597-.174-2.872 2.904-5.764 5.636-5.886 4.353-.194 9.136.635 12.969-.894 9.65-3.85 18.038-9.982 24.584-18.163 2.227-2.784 3.729-6.28 4.999-9.662 1.489-3.967-3.017-9.743-6.752-8.744-4.43 1.185-8.628 3.237-13.061 4.402-3.596.944-7.388 1.154-11.101 1.625-.424.054-.901-.309-1.354-.479.454-.353.976-.648 1.347-1.075.561-.646 1.52-1.451 1.436-2.07-.516-3.825 1.863-5.09 4.737-6.661 3.967-2.168 7.528-4.686 10.714-8.414 3.992-4.67 5.849-10.38 9.641-14.988 3.6-4.374 5.462-9.392 4.888-15.25-.372-3.808-1.706-5.688-5.624-5.972-5.82-.421-11.381 1.033-16.881 2.77-6.261 1.978-11.937 5.058-16.175 10.067-2.413 2.851-5.317 3.61-8.255 2.692-3.644-1.138-.681-1.001.424-1.54.59-.287 1.159-2.153.824-2.569-3.779-4.678 1.584-5.291 3.224-9.1Zm-25.132 21.991c-3.048-1.477-6.067-3.017-9.148-4.419-8.395-3.821-11.548-4.331-18.765-2.614-4.251 1.012-8.459 2.255-12.608 3.63-2.888.958-6.169 1.744-5.122 6.255.303 1.307-.27 2.98-.884 4.274-.345.727-1.596 1.023-2.439 1.513-.432-.767-1.196-1.517-1.233-2.302-.1-2.066-.106-2.897-2.288-1.078-4.663 3.886-6.712 8.952-8.381 14.616-2.514 8.532-4.097 17.042-3.593 25.972.295 5.223 2.384 10.026 6.049 12.871 9.638 7.48 20.38 10.512 32.88 6.7 6.294-1.919 12.417-4.099 18.607-6.196 13.916-4.715 21.762-14.042 25.779-27.498.485-1.625 1.922-3.594 1.427-4.783-4.293-10.313-7.534-21.532-20.281-26.941Zm-54.976 1.57c2.889-5.845 6.19-10.24 13.472-12.323 12.059-3.449 12.212-4.239 13.948-12.161.877-4.001 1.047-8.775-.313-12.529-3.607-9.954-14.055-9.784-21.617-4.268-3.416 2.491-5.368 7.029-7.879 10.711-3.089 4.529-3.133 9.124-.254 13.857 1.119 1.839 2.121 3.886 2.555 5.968.528 2.532.524 5.481-2.328 6.736-2.582 1.135-4.118-1.175-5.898-2.659-2.444-2.037-3.861-4.961-8.033-5.335-6.894-.619-10.15 4.85-15.029 7.461-3.334 1.785-1.082 5.712-1.573 8.637-.214 1.27-.197 2.63-.009 3.908 1.094 7.447 3.897 13.952 10.503 18.228 4.82 3.12 8.666 1.531 9.936-3.807.953-4.004 1.97-8.066 3.62-11.811 1.731-3.929 4.473-7.325 8.899-10.613Zm-7.853 94.244c7.026-4.832 6.568-12.107 6.248-19.309-.028-.613-.55-1.204-.842-1.805-.368.369-.85.677-1.087 1.117-1.147 2.129-2.136 4.348-3.385 6.411-.395.652-1.422 1.254-2.161 1.256-.551.001-1.106-.998-1.66-1.551 3.393-2.761-1.721-9.839 5.46-10.753.614-.079 1.259-.964 1.626-1.622.332-.594.303-1.389.434-2.096-.891-.103-2.061-.62-2.626-.239-2.685 1.804-4.982 5.015-7.832 5.563-5.221 1.004-9.421 3.542-11.19 7.869-1.734 4.244-1.595 9.363-1.727 14.114-.079 2.835 4.221 7.089 6.554 6.379 3.879-1.181 8.67-.444 12.188-5.334Zm-9.425-50.263c0-1.565-.153-3.149.036-4.691.292-2.394-1.125-2.667-2.813-2.353-11.466 2.133-16.968 5.998-16.145 17.144.275 3.714 2.237 5.782 5.382 6.292 5.463.885 11.022 1.212 16.55 1.647 3.164.248 4.349-.215 2.088-3.744-2.443-3.811-5.282-7.742-5.098-14.295Zm41.625 102.883c2.399-2.399 4.622-5.015 7.244-7.141 2.992-2.426 3.549-5.908 4.399-9.156.446-1.706-.416-5.392-.876-5.424-2.399-.164-4.867.516-7.289 1.013-.427.087-.721.729-1.12 1.062-5.203 4.35-8.625 10.79-15.811 12.915-1.371.405-2.278 3.077-2.978 4.868-.792 2.028-1.164 4.229-1.617 6.376-.432 2.049-.735 4.125-1.094 6.189 1.614-.95 3.196-1.958 4.847-2.837 4.488-2.389 9.004-4.724 14.295-7.865Zm65.97-81.678-2.139 1.001 2.112 2.113c.533-1.038 1.065-2.076.027-3.114Zm-87.961 4.712 5.371-.913c-1.875-.134-3.75-.283-5.627-.378-.167-.009-.352.329.256 1.291Zm10.995 64.4c.171-.171.378-.32.5-.52.079-.129.035-.334.047-.505l-2.903.409c.524.467 1.048.934 2.356.616Zm36.913-143.722 2.561 2.15c.194-.403.637-1.077.54-1.165-.712-.656-1.531-1.195-3.101-.985Zm30.629 76.18 1.986-.415c-.093-.339-.243-.978-.269-.973-.841.163-1.671.387-1.717 1.388Zm-29.059 22.776-.942-.628c.052.471.105.942.942.628ZM155.996 435.295c.255 1.055.116 1.717-.022 2.379-.339-.093-.979-.243-.974-.269.163-.841.388-1.671.996-2.11Z"/></svg>