<svg width="534" height="534" viewBox="0 0 534 534" xmlns="http://www.w3.org/2000/svg"><path d="M336.379 303.04c-15.367 17.95-30.429 34.642-46.211 50.624-9.999 10.126-21.215 19.043-31.617 28.788-7.825 7.33-15.157 15.183-22.865 22.641-1.708 1.653-4.079 2.623-6.144 3.907-.78-2.121-2.148-4.219-2.232-6.367-.281-7.256-.283-14.535-.076-21.797.801-28.103-6.95-54.584-16.99-80.199-5.237-13.358-13.883-25.494-21.768-37.678-11.728-18.12-19.16-37.515-24.282-58.603-3.555-14.635 1.851-26.698 3.006-39.973 1.067-12.267 5.782-20.501 13.729-28.869 14.75-15.53 29.24-12.309 44.792-.375 9.932 7.621 17.925 17.291 20.337 30.428.404 2.2 2.647 4.063 4.04 6.082.687-1.979 1.176-4.057 2.117-5.907.882-1.736 1.967-3.559 3.433-4.782 21.217-17.69 60.706-18.641 84.55-2.136 25.713 17.797 33.984 45.561 27.893 77.8-4.745 25.116-15.713 45.891-31.712 66.416Zm-109.176 20.257-2.891-.228c.964.595 1.927 1.191 2.891 3.345l.852 3.967 2.039-.623c-.964-1.634-1.928-3.268-2.891-6.461Zm-6.239-15.582 2.891.228c-.963-.596-1.927-1.191-2.891-3.345-2.452-10.76-4.825-21.541-7.462-32.256-.314-1.276-2.069-2.198-3.156-3.284-.62 1.592-1.955 3.286-1.746 4.76 1.661 11.687 6.329 22.287 12.364 33.897Zm6.239-162.057-2.891-.228c.964.596 1.927 1.191 2.891 3.345 3.656 10.924 7.247 21.871 11.059 32.74.416 1.185 2.108 1.923 3.209 2.868.443-1.371 1.249-2.736 1.272-4.114.222-13.526-6.46-23.863-15.54-34.611Zm-24.955 109.077.853 3.968 2.038-.624c-.963-1.634-1.927-3.268-2.891-6.461 0-3.589.646-7.322-.118-10.74-2.499-11.17-1.419-23.389-9.253-33.056-1.276-1.575-2.726-3.01-4.095-4.509.077 2.345-.232 4.781.296 7.02 3.187 13.517 11.642 25.705 10.193 40.447-.068.695 1.938 1.593 2.977 3.955Zm110.736 14.024c-4.479-6.199-8.97-2.437-10.49 1.538-3.068 8.022-4.559 16.665-6.359 25.125-.176.825 1.945 2.256 3.158 3.203.504.393 2.027.456 2.07.329 3.499-10.458 16.18-16.936 14.74-30.195 6.463-5.031 13.016-20.447 10.767-25.859-.163-.392-2.893-.401-3.733.275-8.265 6.66-9.415 15.814-10.153 25.584Zm-79.542-35.84.761 13.227c.71-.178 2.048-.402 2.039-.526-.355-4.758-.828-9.509-1.356-14.252-.006-.055-.942-.007-1.444-1.565 1.039-5.776 2.891-11.552 2.891-17.328 0-5.775-1.578-11.617-2.948-17.313-2.935-12.201-6.024-24.37-9.463-36.435-.55-1.932-3.236-3.256-4.935-4.86-.381 2.428-1.634 5.112-1.007 7.245 6.364 21.678 12.025 43.446 12.473 66.244.027 1.354 1.949 2.671 2.989 5.563Zm68.624-12.465 2.44 4.674c1.266-1.105 3.591-2.185 3.619-3.32.127-5.338 2.249-8.531 7.723-9.146.1 4.14.584 8.321.149 12.404-.237 2.222-2.444 4.172-3.029 6.433-.859 3.32-1.256 6.802-1.375 10.231-.023.66 2.07 1.678 3.321 1.986.697.172 2.272-.623 2.432-1.244 2.287-8.889 5.312-17.73 6.238-26.778.626-6.115-1.741-12.542-2.815-18.821-.326-1.911-.805-3.796-1.214-5.694-1.462 1.24-3.215 2.268-4.314 3.772-1.394 1.911-3.104 4.171-3.199 6.346-.341 7.805-3.433 12.267-11.827 11.657.617 1.461 1.234 2.922 1.851 7.5Zm56.148 24.931c5.034-10.458 6.548-21.617 6.135-33.042-.12-3.309-1.381-6.605-2.355-9.837-.263-.871-1.391-1.481-2.122-2.212-.553.739-1.525 1.44-1.597 2.222-1.841 20.085-3.246 40.225-9.296 59.67-.27.867 1.255 2.291 1.944 3.456 1.391-.98 3.623-1.701 4.021-2.988 1.425-4.614 2.23-9.419 3.27-17.269Zm-102.937-28.048c0 5.161 1.42 10.898-.382 15.327-1.981 4.871 4.531 6.912 1.709 12.116-1.762 3.25.981 8.981 1.827 13.575.256 1.391.927 2.705 1.408 4.054.559-1.239 1.606-2.479 1.604-3.717-.047-24.079 1.844-48.342-6.214-71.715-.538-1.562-1.762-2.889-2.667-4.325-.523 1.825-1.694 3.738-1.46 5.459 1.191 8.731 2.747 17.411 4.175 29.226Zm-40.551-74.795c-4.304-5.563-9.481-9.641-16.943-7.597-1.739.477-4.046 3.441-3.981 5.181.397 10.564 1.322 21.112 2.271 31.648.213 2.363.978 4.767 1.976 6.929.471 1.021 2.092 1.511 3.192 2.242.336-.897 1.015-1.818.955-2.688-.665-9.541-1.66-19.065-2.046-28.615-.099-2.463 1.217-5.283 2.693-7.366.61-.861 3.765-.89 5.033-.112 2.456 1.507 5.206 3.772.771 6.451l3.628 4.834c.817-2.597 1.634-5.194 2.451-10.907Zm0 96.61c-.365-.364-.679-.824-1.115-1.058-.26-.14-1.03.078-1.03.129.045 3.831-.63 7.877.371 11.454 4.517 16.142 12.261 31.26 14.586 48.186.534 3.892 5.279 7.207 8.086 10.788-.455-4.194-.152-8.65-1.493-12.539-6.219-18.034-12.894-35.91-19.405-56.96Zm49.909-40.514c2.079-1.687 5.132-2.958 6.066-5.136 3.632-8.471 9.397-12.885 18.811-12.024 1.526.14 3.528.624 4.515-.113 1.742-1.304 2.873-3.424 4.259-5.202-2.009-1.338-4.089-3.88-6.014-3.769-4.232.245-8.385 1.833-12.571 2.87-14.219 3.524-14.97 4.533-15.066 23.374Zm-7.799 91.936c.52 5.431.821 10.897 1.676 16.274.311 1.955 1.945 3.7 2.976 5.541 1.049-1.822 2.867-3.58 3.027-5.477 1.444-17.138-6.099-32.006-12.382-47.17-.456-1.099-1.268-2.051-1.914-3.071-.393 1.377-1.345 2.867-1.092 4.113 1.917 9.437 4.07 18.827 7.709 29.79Zm32.753 51.422c3.985-3.981 8.408-7.623 11.838-12.035 3.805-4.894 6.828-10.422 9.88-15.848.532-.947-.477-2.76-.774-4.172-.724.278-1.712.345-2.135.867-8.362 10.339-17.386 20.26-24.591 31.357-2.657 4.092 1.575 6.03 5.782-.169Zm1.56-179.197c4.713-1.039 9.432-2.049 14.132-3.141.91-.212 1.745-.742 2.615-1.125-.818-1.09-1.426-2.776-2.496-3.154-2.711-.956-5.965-2.457-8.408-1.735-10.948 3.238-21.712 7.114-32.473 10.954-1.134.404-1.812 2.087-2.701 3.177 1.369.419 2.895 1.456 4.082 1.156 7.419-1.878 14.762-4.055 25.249-6.132Zm-45.23 138.683c-.367-.367-.683-.83-1.12-1.063-.261-.139-1.028.057-1.037.15-.358 4.016-.842 8.034-.922 12.06-.144 7.255-.37 14.54.168 21.758.154 2.067 2.819 3.947 4.333 5.913.566-1.748 1.666-3.513 1.61-5.241-.346-10.677-.953-21.347-3.032-33.577Zm-73.304-88.82c.52.822 1.236 1.582 1.52 2.478.698 2.199 1.197 4.46 1.775 6.696.461-1.883 1.439-3.805 1.299-5.643-.873-11.508-1.951-23.002-3.112-34.485-.101-1-1.293-1.889-1.979-2.83-.354.89-1.01 1.778-1.017 2.671-.073 9.852-.046 19.703 1.514 31.113Zm65.505 152.707c-.519-.803-1.259-1.543-1.516-2.423-.662-2.262-1.11-4.587-1.643-6.886-.506 1.828-1.411 3.647-1.45 5.485-.165 7.637-.252 15.286.055 22.914.079 1.979 1.688 3.897 2.594 5.842 1.174-2.188 3.158-4.305 3.359-6.579.493-5.559.161-11.191-1.399-18.353Zm4.679-1.558 2.305 7.791c1.311-.524 3.629-.85 3.777-1.603 1.31-6.657 2.4-13.373 3.088-20.119.096-.937-2.35-2.133-3.619-3.209-.81 1.024-1.971 1.931-2.366 3.096-1.219 3.589-2.145 7.278-3.185 14.044Zm-9.357-99.727c0-1.038.289-2.184-.051-3.095-1.344-3.592-2.885-7.109-4.354-10.654-.611 3.716-1.835 7.463-1.65 11.139.163 3.247 1.695 6.499 2.989 9.596 1.414 3.385 3.249 6.594 4.9 9.88.123-3.849.366-7.701.266-11.545-.019-.752-1.366-1.47-2.1-5.321Zm-46.79-34.281c1.039 7.825 1.925 15.677 3.28 23.447.211 1.206 2.568 2.038 3.933 3.043.715-1.138 2.263-2.515 2.015-3.376-2.383-8.274-5.069-16.461-9.228-23.114Zm110.736-35.839c-3.528 2.485-7.17 4.833-10.479 7.58-.61.506.127 2.631.242 4.008 1.075-.488 2.127-1.314 3.229-1.387 1.717-.114 3.466.31 5.206.457 2.006.169 2.859-.791 6.351-8.944.572-1.335 6.274-2.435.868-4.703-.923-.387-2.554.911-5.417 2.989Zm40.551-24.932c-3.876 9.478 9.451 10.533 8.996 18.337.64-.532 1.826-1.055 1.834-1.597.068-4.111.733-8.502-.513-12.23-.692-2.073-4.69-3.043-10.317-4.51Zm-49.909 149.59c2.118-3.155 4.584-6.145 6.204-9.539.773-1.619-.062-4.004-.169-6.043-2.373.361-6.681.398-6.805 1.135-.804 4.799-7.564 8.788.77 14.447Zm-7.799-70.12 2.074 13.51c.348-4.474.837-8.943 1.007-13.425.175-4.612.293-9.259-.131-13.839-.114-1.227-2.299-2.263-3.533-3.387-.846 1.513-2.569 3.16-2.361 4.511.499 3.245 1.905 6.351 2.944 12.63Zm48.35 48.305c2.599-5.088 6.092-9.945 7.491-15.344.971-3.745-.94-8.236-1.563-12.394-.417 3.424-.352 6.996-1.357 10.237-1.684 5.425-4.051 10.64-4.571 17.501ZM186.652 183.056c1.039 3.111 2.054 6.231 3.126 9.331.948 2.739-2.655 8.14 3.678 7.399 1.172-.137 2.216-5.581 2.405-8.632.168-2.707-5.636-9.03-9.209-8.098Zm18.716 18.699.957 7.189c1.76-1.399 4.505-2.493 5.054-4.266.857-2.77.857-6.193 0-8.963-.549-1.773-3.294-2.867-5.054-4.266-.319 2.396-.638 4.793-.957 10.306Zm-15.597-52.98-3.932-4.675c-1.809 2.182-4.563 4.164-5.082 6.618-.326 1.545 2.697 3.796 4.217 5.73 1.079-2.038 2.158-4.077 4.797-7.673Zm90.46 65.446c-.971-2.746 2.577-8.551-3.783-7.53-4.626.742-2.363 3.952-.454 6.619 1.012 1.415.644 3.754 1.156 5.604.534 1.929 1.377 3.772 2.084 5.653.332-2.41.665-4.82.997-10.346Zm59.267-15.583c0-.517.2-1.168-.039-1.525-.611-.911-1.418-1.691-2.146-2.524.465 4.203.799 8.429 1.533 12.585.113.642 2.058.961 3.156 1.429.205-.949.705-1.948.555-2.837-.32-1.887-.979-3.716-3.059-7.128Zm-96.699 3.117.993 10.341c.709-3.425 1.716-6.823 2.023-10.284.212-2.377-.548-4.841-.873-7.266-.714.34-1.844.521-2.049 1.056-.343.893-.094 2.012-.094 6.153Zm53.029 24.931-3.579-4.674-2.66 2.657c1.56 1.192 3.12 2.384 6.239 2.017Zm0 9.35c-.365-.365-.679-.824-1.114-1.058-.26-.14-1.031.08-1.03.128.048 2.798.154 5.594.253 8.39 1.15-1.967 2.3-3.934 1.891-7.46Zm40.551-18.699 1.871 1.247c-.104-.935-.208-1.87-1.871-1.247Zm-137.25 46.747 1.872 1.247c-.104-.935-.208-1.87-1.872-1.247Z"/></svg>