<svg width="534" height="534" viewBox="0 0 534 534" xmlns="http://www.w3.org/2000/svg"><path d="M160.169 256.617c-6.669 9.298-13.264 18-19.135 27.165-6.31 9.852-12.377 19.914-17.727 30.307-4.186 8.133-7.212 16.875-10.535 25.431-.824 2.121.454 3.64 2.834 2.949 2.775-.805 5.348-2.366 8.144-3.024 11.698-2.752 23.387-5.61 35.196-7.796 8.618-1.595 17.575-1.512 26.09-3.453 7.44-1.696 14.839-.511 22.121-1.55 4.064-.58 8.188-.592 12.234-1.07 4.834-.57 9.991-1.325 15.117 1.008 2.669 1.215 6.522-.09 9.827-.392 1.714-.157 3.668-1.324 5.054-.806 6.987 2.611 13.809-.526 20.714-.195 7.044.337 14.12-.034 21.177.118 3.738.081 7.555-.854 11.199 1.394 1.326.818 3.837.711 5.367.033 7.332-3.251 13.945.296 20.86 1.58 5.192.965 10.525 1.246 15.809 1.637 19.789 1.461 38.708 6.597 57.679 12.198 12.503 3.691 22.926 10.548 33.786 16.975.738.436 1.03 1.626 1.528 2.465-1.016.444-2.017 1.228-3.052 1.277-5.944.278-11.187-2.319-15.677-5.555-9.761-7.033-21.056-9.953-32.245-13.128-8.943-2.539-18.067-4.526-27.203-6.272-5.437-1.04-11.164-.631-16.563-1.792-6.857-1.474-14.019-.302-20.734-2.903-1.819-.705-4.143-.107-6.235-.107-25.103 0-50.208.103-75.31-.081-5.534-.04-11.308 1.528-16.609-1.488-5.007 3.224-10.566.869-15.825 1.561-8.707 1.147-17.531 1.024-26.184 3.025-5.122 1.184-10.599.768-15.78 1.776-9.862 1.918-19.62 4.365-29.432 6.546-6.712 1.491-13.477 2.76-20.152 4.402-4.536 1.115-6.442-2.245-9.15-4.543-3.431-2.913-2.416-5.656-1.094-9.38 3.405-9.593 7.449-18.885 11.585-28.16 5.613-12.586 14.368-23.292 20.995-35.247 5.423-9.782 13.257-17.596 20.26-26.03 4.241-5.106 10.403-8.629 15.758-12.792 3.938-3.062 8.176-5.771 11.905-9.062 5.434-4.796 11.672-8.138 18.05-11.398 5.845-2.989 11.41-6.523 17.212-9.601 16.4-8.7 33.816-14.409 51.858-18.829 11.607-2.844 23.075-5.359 34.966-4.325 4.875.425 6.567-2.609 7.633-5.677 1.286-3.702 1.16-7.879 1.79-11.827.975-6.115 2.057-12.214 3.125-18.314 1.023-5.847 2.57-11.651 3.006-17.538.5-6.759 1.499-13.326 3.144-19.902 1.15-4.595 1.178-9.472 1.687-14.226.537-5.011 1.028-10.028 1.579-15.038.455-4.138 3.76-6.26 8.438-5.93 9.188.648 18.391 1.092 27.589 1.596 1.304.072 2.957-.493 3.851.115 1.873 1.274 3.651 2.951 4.798 4.865.34.568-1.261 2.976-2.474 3.692-9.629 5.683-20.191 9.289-30.603 13.194-.417.157-2.218-1.662-2.075-1.986 1.976-4.47 4.896-8.034 10.094-8.863 1.02-.162 2.289.341 3.092-.101 1.941-1.07 3.675-2.516 5.492-3.81-2.1.008-4.206-.074-6.3.051-1.999.12-4.066.929-5.961.605-4.574-.783-6.677 1.899-7.795 5.406-1.044 3.271-1.111 6.84-1.91 10.207-2.103 8.86-.457 18.012-1.835 26.767-1.255 7.971-.472 15.866-1.384 23.703-1 8.589-2.931 17.067-4.36 25.609-.295 1.765-.033 3.618-.264 5.399-.348 2.679.672 3.033 3.31 3.59 12.851 2.712 25.937 4.821 37.837 10.841 8.832 4.469 16.809 10.261 24.648 16.275 12.666 9.717 23.494 21.318 32.406 34.367 6.515 9.538 11.44 20.075 15.157 31.351 3.581 10.862 4.9 22.009 7.673 32.907 1.694 6.658.931 13.204 1.44 19.788.228 2.944 1.44 5.855 1.383 8.765-.048 2.456-1.172 4.533-.158 7.435.96 2.751-.515 6.357-.94 9.585-.329 2.496-1.786 5.606-.802 7.348 1.861 3.296 5.453 4.919 9.616 4.798 5.487-.159 11.001-.304 16.465.078 2.567.179 5.326 1.182 7.48 2.599 1.749 1.151 5.152 2.915 1.482 5.893-.134.108-.128.527-.043.745 2.757 7.111-2.982 10.145-6.863 13.883-4.534 4.369-10.593 4.541-16.521 1.348-2.312-1.245-4.991-1.844-7.554-2.557-.562-.156-1.68.283-1.921.762-.249.493.11 1.456.465 2.061 1.857 3.163 3.908 6.215 5.665 9.43 1.083 1.983 2.951 4.621 2.374 6.201-1.23 3.373-3.284 6.872-5.974 9.191-4.653 4.012-10.025 7.195-15.15 10.645-.77.518-1.84.845-2.766.834-4.044-.051-6.01 2.115-6.692 5.852-.383 2.099-.827 4.186-1.243 6.279 1.462-1.699 2.917-3.406 4.391-5.095.679-.779 1.396-1.525 2.096-2.286.346 1.115 1.334 2.689.924 3.261-1.523 2.126-1.015 3.542-.145 5.937 1.152 3.171.032 6.665-2.18 9.909-4.91 7.199-9.95 13.31-19.975 12.377-5.963-.555-12.217.872-17.993-.301-12.616-2.563-25.235-.861-37.834-1.261-4.73-.15-9.547 1.638-14.242 1.322-11.624-.783-23.194.468-34.798.263-7.617-.135-15.26 1.424-22.882 1.34-15.738-.175-31.584.03-47.164-1.802-10.589-1.245-21.056-.594-31.552-1.257-6.069-.383-12.121-1.021-18.18-1.544-6.059-.523-12.279-.35-18.146-1.703-15.933-3.673-32.023-4.897-48.287-4.514-1.905.044-3.827 1.408-5.677 1.274-4.945-.357-9.857-1.179-14.777-1.854-2.214-.303-4.897-1.669-6.532-.862-4.538 2.241-8.642-.177-12.912-.244-3.53-.055-5.556-2.318-5.88-5.725-.27-2.851-.835-6.058.152-8.542 1.115-2.804 1.12-3.384-1.879-3.01-.103.013-.676-1.376-.468-1.608 1.568-1.751 3.656-3.151 4.815-5.114.864-1.465 1.724-3.571-1.847-4.303-11.72-2.4-20.76-10.412-31.144-15.646-.57-.287-.958-1.646-.848-2.425.27-1.924.538-3.978 1.413-5.665 3.024-5.832 1.701-14.206 10.007-17.06 1.102-.378 2.007-2.206 2.428-3.544 2.365-7.505 8.229-12.417 13.937-16.793 3.54-2.714 5.599-6.005 8.09-9.255 1.067-1.394 1.933-3.084 3.298-4.08 3.055-2.228 5.54-1 6.129 2.701.152.957.494 1.883.75 2.823.554-.542 1.228-1.006 1.645-1.639 3.11-4.729 7.917-2.626 12.096-2.924.13-.009.781 2.578.535 2.707-3.217 1.684-5.475 4.624-9.647 5.229-6.299.915-13.753.157-16.9 8.549-.727 1.941-5.121 2.336-7.549 3.881-1.264.804-1.918 2.566-2.848 3.895 1.416.11 3.489.873 4.138.22 3.457-3.476 7.512 2.758 10.963-.986 1.201-1.303 4.192-1.156 5.079-2.513 2.754-4.215 7.504-4.768 11.221-5.083 5.604-.476 9.399-3.075 13.097-6.497 2.774-2.568 5.93-3.734 9.642-3.212.922.129 2.181.487 2.599 1.164 4.158 6.735 10.178 3.356 15.364 2.549 4.733-.737 9.264-2.784 13.867-4.307.445-.147.762-.961 1.148-.969 4.696-.092 9.805 1.056 13.974-.44 4.025-1.444 6.969-5.736 10.603-8.493 2.194-1.664 4.452-1.953 6.595.798 2.006 2.573 3.779 3.787 8.242 2.231 7.399-2.58 15.746-2.365 23.652-3.591 10.241-1.588 20.693-1.85 30.793-3.557 7.103-1.201 13.953-.21 20.896-.93 7.762-.805 15.671-.185 23.516-.185 7.583 0 15.167-.054 22.749.068.958.015 1.903.952 2.854 1.461-.925.536-1.842 1.523-2.775 1.538-7.581.127-15.165.053-22.748.085-1.79.007-3.628-.025-5.348.376-.764.178-1.288 1.384-1.921 2.124.698.208 1.396.594 2.095.597 8.629.042 17.463 1.193 25.835-.276 9.813-1.721 19.511-1.314 29.209-1.076 8.45.207 16.865 2.015 25.287 3.177 2.444.337 4.904 1.439 7.276 1.24 7.965-.668 15.309 2.515 23.019 3.323 1.073.112 2.156 1.238 2.974 2.132.328.357.085 1.408-.159 2.043-.108.279-1.093.579-1.301.409-5.711-4.68-13.231-1.529-19.346-4.476-.852-.411-2.029-.144-3.055-.192-5.302-.251-10.552-.307-15.891-1.145-3.665-.575-7.977-.239-11.964-.507-3.777-.254-7.486-1.332-11.264.066-3.459 1.28-6.972-2.041-10.461.017-9.826-3.503-19.983-.663-29.948-1.531-.937-.082-1.92.371-2.881.576.801.318 1.58.712 2.405.943 10.121 2.838 20.487 1.538 30.723 1.37 4.033-.067 7.706 1.76 12.142.605 3.502-.912 7.915 1.727 11.94 2.718.74.182 1.651.255 2.334-.008 11.629-4.466 22.662 3.46 34.15 1.603 7.406 3.814 16.22 2.489 23.648 7.512 4.679 3.163 11.548 3.206 17.572.985.682-.252 1.424-.684 2.075-.59.863.124 1.664.682 2.491 1.054-.524.674-.942 1.789-1.592 1.947-2.879.699-5.828 1.105-8.743 1.658-.71.134-1.391.422-2.086.64.467.555.835 1.262 1.418 1.638 2.672 1.723 5.346 3.459 8.127 4.993 3.74 2.062 7.258.179 7.573-3.981.559-7.364.195-14.925 1.789-22.052 2.186-9.773 1.417-19.507 1.169-29.203-.216-8.445-1.674-16.928-3.328-25.246-1.418-7.131-3.516-14.187-5.985-21.034-3.554-9.855-8.72-18.89-14.156-27.913-5.73-9.511-13.847-16.452-21.45-23.948-7.965-7.852-17.52-13.723-27.02-19.731-13.205-8.353-28.33-10.081-42.676-14.455-3.465-1.057-7.807-1.002-10.399 3.234-.38.621-3.137.79-3.556.235-6.753-8.957-16.275-5.254-24.462-4.645-9.464.703-18.879 3.274-28.087 5.85-7.653 2.142-15.137 5.106-22.405 8.357-9.276 4.149-18.616 8.366-27.28 13.622-11.193 6.79-22.781 13.069-32.421 22.27-6.789 6.479-14.228 12.278-21.769 18.773Zm17.652 103.169-.114 1.454c.299-.485.599-.97 1.683-1.454l.115-1.455c-.299.485-.599.97-1.684 1.455Zm-9.414 12.552-.115 1.455c.3-.485.599-.97 1.684-1.455l.115-1.454c-.3.485-.6.97-1.684 1.454Zm-63.549 18.045-1.454-.115c.484.3.969.6 1.454 1.684l1.454.115c-.485-.3-.969-.599-1.454-1.684Zm299.699-23.536-1.454-.115c.485.299.969.599 1.454 1.684l.429 1.997 1.025-.313c-.484-.823-.969-1.646-1.454-3.253Zm-40.797 9.414 2.511.628.23-1.026c-.914-.129-1.827-.257-2.741-1.171l-4.592-.115c1.283.3 2.565.608 3.852.892.236.052.493.008.74.792Zm-163.187-6.276-1.454-.115c.485.3.97.599 1.454 1.684 1.569.785 3.139 1.569 4.708 3.138-2.348 3.586-6.033 1.897-9.181 2.433-1.105.188-2.054 1.291-3.074 1.976.956.361 1.964 1.12 2.855 1.001 1.905-.255 3.729-1.063 5.624-1.464 2.894-.611 6.407-2.346 8.612-1.331 4.844 2.229 9.593.862 14.34 1.211 1.41.104 4.205-1.297 4.171-1.421-1.006-3.758-2.208 1.918-3.587-.008-.31-.432-1.39-.33-2.119-.444-5.88-.917-11.761-1.826-17.641-3.522-1.569-.785-3.139-1.569-4.708-3.138Zm240.073 31.382 1.455.115c-.485-.3-.97-.6-1.455-1.684-.852-.33-1.697-.679-2.559-.982-.688-.242-1.396-.428-2.096-.639.563.801.963 1.921 1.734 2.317.783.401 1.933.088 2.921.873Zm-64.333-25.106-1.454-.115c.485.3.97.6 1.454 1.684 1.395.262 2.782.627 4.188.738.638.051 1.315-.4 1.974-.623-.801-.3-1.583-.763-2.409-.861-1.235-.147-2.5-.038-3.753-.823Zm-132.589-11.768-3.766 2.197c.285.313.722.944.831.892 1.088-.521 2.165-1.096 3.148-1.791.331-.233.389-.854 1.356-1.298l.115-1.454c-.3.484-.6.969-1.684 1.454Zm-32.951-14.122c.825.793 1.541 2.247 2.768.391.28-.424.722-.743 1.089-1.11-.878-.284-1.794-.865-2.623-.76-.724.091-1.35.956-2.804 1.479l-1.997.429.313 1.025c.823-.485 1.646-.969 3.254-1.454ZM96.228 392.737c-1.002 0-2.023-.118-3 .036-.811.129-1.571.579-2.354.887.663.215 1.396.727 1.973.587 1.427-.345 2.782-.987 4.95-1.51l.628-2.511-1.026-.23c-.129.914-.258 1.827-1.171 2.741Zm127.882 5.492 1.454.115c-.485-.3-.969-.6-1.454-1.684-1.496-.785-2.968-1.623-4.507-2.313-.338-.151-.913.221-1.379.353.358.391.643.969 1.086 1.141 1.571.609 3.196 1.08 4.8 2.388Zm-119.252 6.276 1.454.115c-.485-.3-.969-.6-1.454-1.684l2.434-3.843c-1.924.301-3.948.344-5.72 1.034-.681.266-.788 2.005-1.157 3.074 1.481.173 2.962.346 4.443 1.304Zm113.76-43.15c-4.174 0-8.354-.111-12.519.099-.775.039-1.486 1.363-2.227 2.094.806.315 1.61.893 2.419.901 4.609.045 9.386.649 13.896-3.094l1.998-.429-.314-1.026c-.823.485-1.645.97-3.253 1.455Zm47.858 32.166 1.454.115c-.485-.3-.969-.599-1.454-1.684-4.824-.261-9.649-.506-14.472-.789a103.137 103.137 0 0 0-13.493.078c-.652.047-1.234 1.081-1.848 1.658.722.469 1.502 1.41 2.159 1.332 5.035-.603 10.029-.251 15.069-.064 4.172.155 8.388-.907 12.585-.646Zm72.179 7.846 1.454.115c-.485-.3-.97-.6-1.454-1.684-10.104-.785-20.206-1.615-30.318-2.27-.839-.055-1.754 1.071-2.634 1.648.988.469 1.954 1.286 2.968 1.351 7.349.464 14.745-.745 22.085 1.437 2.294.681 5.247-.859 7.899-.597Zm2.353 41.581c8.023-.34 15.98-1.105 23.805-3.075 1.721-.433 3.645-.108 5.471-.03.431.019.845.453 1.267.697-.333.369-.605.838-1.012 1.087-.822.504-1.675 1.065-2.592 1.291-4.515 1.112-9.073 2.059-13.57 3.238-.658.172-1.073 1.272-1.6 1.943.562.375 1.08.923 1.697 1.081.736.189 1.575.155 2.338.028 9.285-1.543 18.545-3.243 27.851-4.643 5.232-.787 10.632-.644 15.78-1.744 5.105-1.091 10.097.555 15.432-1.093 6.442-1.991 6.403-1.019 9.242-8.291 1.431-3.663 1.819-5.535-2.579-6.278-1.913-.323-3.746-1.241-5.659-1.425-8.998-.866-17.65-4.662-26.922-3.202-.193.03-.415-.259-.644-.31-13.308-2.974-25.635-9.391-39.309-11.126-3.392-.431-6.701-1.484-10.067-2.156-6.284-1.254-12.541-3.132-18.882-3.502-12.311-.719-24.718.686-36.978-1.689-3.667-.71-7.407-1.033-11.102-1.611-2.93-.458-5.853-1.541-8.758-1.468-12.593.318-25.182.895-37.766 1.506-7.37.357-14.701.281-22.131 1.164-10.749 1.276-21.611 1.864-32.376 3.454-9.19 1.358-18.508 1.857-27.686 3.279-11.464 1.776-22.852 4.061-34.254 6.223-4.819.913-9.603 2.019-14.38 3.13-4.52 1.051-7.173 4.028-7.996 8.514-.673 3.675-1.127 7.394-1.587 11.106-.678 5.462 1.267 6.904 6.351 4.552 3.516-1.626 6.856-3.629 10.337-5.335 2.6-1.273 5.303-2.335 7.956-3.5.563-.247 1.11-.531 1.665-.799.118.736.378 1.484.313 2.202-.064.697-.516 1.349-.699 2.047-.231.878-.363 1.781-.538 2.674.761-.359 1.487-.873 2.288-1.053 7.181-1.61 14.356-3.255 21.577-4.662 1.679-.327 4.289-.484 5.17.475 4.368 4.756 10.276 3.384 14.581 2.213 6.79-1.846 12.601-.797 18.891 1.064 4.481 1.325 9.252 1.662 13.891 2.46 1.701.293 4.093.055 4.948 1.079 2.078 2.489 4.57 1.917 7.08 2.065 6.328.374 12.771-1.08 18.972 1.505 2.569 1.071 5.001 2.679 8.238.258 1.755-1.312 5.042-.518 6.481 2.39.376.761.978 2.023 1.473 2.021 7.25-.03 14.61.496 21.721-.583 8.775-1.331 17.579-3.562 26.319-2.149 4.152.671 7.033 1.513 9.78-2.213.591-.801 2.192-1.135 3.353-1.195a3418.87 3418.87 0 0 1 34.627-1.596c2.87-.119 5.749-.018 10.192-.018Zm107.484-60.41c6.404-2.092 12.394-2.664 18.748 1.214 5.523 3.37 11.411-.31 12.634-6.86.956-5.118.143-6.072-5.246-6.12-2.077-.018-4.609-.765-6.144.148-3.738 2.225-6.973 1.651-10.492-.121-2.335-1.176-5.432-3.48-7.078-2.756-2.405 1.059-3.807 4.387-5.651 6.736-2.546 3.244-2.249 4.103 3.229 7.759Zm-251.841 71.394c2.976.361 6.327 1.744 8.834.825 3.164-1.159 5.304 1.154 7.971.752 1.971-.297 3.954-.521 5.932-.777-1.801-1.288-3.469-2.874-5.45-3.759-1.303-.582-3.065-.066-4.609-.196-3.973-.336-8.052.929-11.932-1.424-1.333-.808-4.625-.854-5.209-.003-2.508 3.652-5.025-1.448-6.544.1-3.726 3.799-4.498-1.459-6.79-1.852-1.141-.195-2.133-1.28-3.274-1.466-10.494-1.719-21.007-2.745-31.51-.037-.461.119-.889.367-1.332.555.495.335.97.926 1.488.967 7.332.579 14.67 1.102 22.009 1.595 1.802.121 3.961-.54 5.362.234 6.082 3.354 12.618 2.821 19.123 2.951 1.72.034 3.431.489 5.931 1.535Zm169.463 1.569c17.21 0 34.42.032 51.63-.044 1.95-.008 4.435.022 5.738-1.076 2.898-2.44 5.254-5.541 7.695-8.485.364-.44-.01-1.492-.043-2.261-.737.28-1.739.343-2.171.872-4.302 5.271-9.099 9.072-16.471 6.309-.457-.171-1.16-.225-1.537.009-4.254 2.639-8.952 1.424-13.45 1.487-11.211.155-22.425.033-33.637.075-1.35.005-3.617-.741-3.071 1.847.139.656 2.44.857 5.317 1.267Zm-243.211-80.024c2.739-3.136 6.34-1.063 9.519-1.51 1.166-.164 2.428.349 3.646.553-.839.842-1.7 1.663-2.511 2.532-.704.754-1.352 1.56-2.024 2.344 1.073-.026 2.344.307 3.18-.151 1.936-1.061 3.805-2.356 5.389-3.881.488-.469.023-2.888-.101-2.896-4.547-.288-8.646-3.108-13.753-.604-8.166 4.005-17.221 5.886-25.879 1.833-3.928-1.839-6.45-.8-9.48.842-4.595 2.492-9.544 3.675-14.723 4.102-1.408.116-2.79.547-4.183.834 1.509.76 2.947 1.84 4.546 2.191 1.74.383 3.966.722 5.389-.033 4.115-2.187 9.389-1.149 12.887-4.757 2.007-2.07 3.521-1.224 5.981-.245 6.827 2.719 13.939 3.382 22.117-1.154Zm213.398 75.317c-1.596-.496-3.375-1.719-4.759-1.371-9.665 2.431-19.576 3.108-29.38 4.529-.915.132-1.791.536-2.685.814.984.768 1.902 2.064 2.967 2.199 2.565.324 5.608.951 7.72-.07 4.491-2.171 9.012-1.247 13.507-1.342 8.595-.18 17.201.086 25.794-.15 2.138-.058 5.133 1.812 6.45-1.732-2.062-.436-4.115-.928-6.189-1.296-3.928-.698-8.248 1.547-13.425-1.581Zm-59.626-103.561c1.82 0 3.648.093 5.457-.055.562-.046 1.071-.745 1.604-1.145-.547-.646-1.085-1.845-1.644-1.855-7.019-.128-14.272-1.189-20.999.219-7.126 1.49-14.398.942-21.4 2.788-1.205.318-3.247.549-3.757-.092-3.196-4.015-6.004 1.014-8.986.185-.322-.089-.82.455-1.237.705.385.273.748.746 1.156.789 5.5.568 10.998 1.315 16.514 1.494 2.624.085 5.266-1.076 7.932-1.431 3.437-.457 6.81-.109 10.377-1.269 2.866-.932 7.068-1.857 10.294 1.047.345.311 2.047-.884 4.689-1.38Zm72.963 41.581c.936.262 1.879.757 2.804.725 1.138-.039 2.26-.519 3.389-.809-.947-.233-1.882-.553-2.842-.686-4.042-.558-8.099-1.007-12.135-1.602-2.928-.431-5.812-1.225-8.75-1.506-4.75-.455-9.545.56-14.286-1.453-2.21-.939-5.154-.233-7.755-.09-.434.024-1.136.993-1.131 1.519.005.52.713 1.445 1.175 1.486 6.82.613 13.662.995 20.473 1.684 2.938.297 5.771-.492 8.945 1.113 2.329 1.178 6.579 1.968 10.113-.381Zm-71.394-3.923c5.229 0 10.458.021 15.687-.024.709-.007 1.416-.343 2.125-.527-.738-.37-1.466-.757-2.214-1.105-1.095-.509-2.194-1.387-3.309-1.415-5.748-.144-11.785 1.027-17.176-.367-5.666-1.466-10.712.91-16.038.349-.526-.056-1.124.567-1.688.874.695.216 1.386.445 2.086.644 1.873.531 3.731 1.404 5.628 1.5 4.433.223 8.885.071 14.899.071Zm108.268 6.277c6.502 1.271 12.994 2.594 19.516 3.748.837.148 1.829-.584 2.749-.908-.54-.424-1.153-.782-1.611-1.282-3.685-4.022-9.014-2.141-13.292-3.755-5.788-2.183-11.646-2.784-17.696-2.487-.961.047-1.907.404-2.859.617.861.833 1.627 2.232 2.6 2.394 3.23.536 6.533.627 10.593 1.673Zm-91.008-17.26c-5.014-2.371-10.603-1.451-15.913-2.819-7.062-1.82-14.708-1.389-22.108-1.848-.641-.04-1.318.491-1.978.756.672.258 1.324.646 2.019.752 7.089 1.079 14.196 2.041 21.274 3.181 5.814.936 11.567 2.313 17.406 2.998 2.373.278 1.981-1.578-.7-3.02ZM267.26 457.07h22.723c1.306 0 2.62.076 3.912-.055.311-.031.818-.787.768-1.145-.095-.671-.404-1.719-.849-1.851-.961-.284-2.08.033-3.105-.107-5.251-.721-10.815 1.753-15.808-1.549-2.081 2.87-7.157-.694-7.641 4.707Zm59.626-86.301c2.172 2.844 5.251 1.121 7.899 1.561 2.433.404 5.266.079 7.233 1.242 3.787 2.239 7.702 1.847 11.669 1.874.689.005 1.38-.388 2.071-.597-.628-.732-1.136-1.913-1.905-2.119-3.056-.819-6.264-1.099-9.286-2.01-6.125-1.846-12.238-2.29-17.681.049Zm65.903 36.09c3.975.325 8.07-.878 11.921 1.448.995.602 2.926-.136 4.349-.538.656-.185 1.122-1.042 1.674-1.595-.592-.295-1.169-.804-1.779-.846-2.309-.16-4.66.045-6.94-.275-6.12-.86-12.209-1.942-18.319-2.873-.705-.107-1.621-.036-2.171.342-.766.527-1.278 1.42-1.899 2.157.697.203 1.383.458 2.092.602 3.148.639 6.765-1.555 11.072 1.578Zm-209.476-11.768c-2.785.784-5.563 1.594-8.358 2.345-2.104.565-4.258.967-6.323 1.643-.476.156-1.085 1.516-.938 1.671.57.609 1.529 1.458 2.147 1.322 4.963-1.09 9.867-2.45 14.825-3.569 1.18-.266 2.565.336 3.726.037 1.016-.262 1.849-1.229 2.763-1.884-1.283-1.283-2.41-2.837-3.927-3.712-.587-.338-2.061.862-3.915 2.147Zm196.923-27.46-3.766-.942c.541.837.888 2.007 1.656 2.455 3.749 2.186 7.459 4.567 11.475 6.131 4.036 1.573 8.407 2.305 12.657 3.293.622.145 1.389-.336 2.089-.527-.748-.365-1.489-.745-2.244-1.093-6.765-3.108-13.532-6.212-21.867-9.317Zm51.781 15.691 3.765.942c-.541-.837-.888-1.998-1.655-2.456-3.645-2.175-7.577-3.328-11.915-3.251-2.743.048-5.491-.55-8.245-.703-2.062-.115-4.137.018-6.207.041 2.022.763 3.987 1.786 6.076 2.239 5.509 1.195 11.071 2.142 18.181 3.188Zm-87.086-3.923c-8.443-3.927-17.427-1.853-26.18-2.316-.659-.035-1.346.456-2.019.703.631.276 1.246.74 1.897.8 6.244.571 12.579.635 18.704 1.805 2.603.498 4.886 2.169 7.598-.992Zm-35.305-19.613c1.228.182 2.627.056 3.643.62 1.405.781 2.633 2.079 3.287-.436.09-.349-1.545-1.241-2.459-1.74-5.024-2.737-10.49-1.26-15.767-1.536-1.181-.062-2.393.463-3.59.718 1.245.736 2.441 1.957 3.749 2.093 1.888.196 3.855-.565 5.792-.588 1.255-.015 2.517.559 5.345.869Zm103.561 26.674c-2.08 0-4.171-.095-6.229.117-.265.027-.817 2.123-.472 2.448 2.456 2.311 12.544 2.559 15.589.577.406-.265.837-.49 1.256-.733-.627-.28-1.233-.723-1.886-.81-2.483-.334-4.981-.553-8.258-1.599Zm-142.004-27.459c.887-.364 1.792-.692 2.638-1.133.113-.059-.038-1.003-.126-1.013-5.46-.627-10.923-1.229-16.395-1.729-.525-.048-1.111.568-1.669.876.55.55 1.03 1.47 1.661 1.59 4.351.825 8.734 1.482 13.891 1.409ZM90.736 388.814c2.493-.261 4.993-.48 7.476-.814.652-.087 1.255-.532 1.88-.813-.68-.242-1.343-.612-2.043-.706-4.505-.602-9.002.734-13.539.058-.987-.148-2.934.534-3.05 1.111-.52 2.609 1.64 1.882 3.028 1.932 1.82.066 3.642.017 6.248-.768Zm105.915-22.752 2.353-3.71c-1.054.46-2.07 1.153-3.17 1.333-2.473.405-4.994.502-7.482.831-1.147.152-2.261.553-3.39.841 1.247.758 2.5 2.144 3.741 2.134 2.13-.017 4.253-.906 7.948-1.429Zm250.272 38.443c-.103 2.859 1.148 3.202 3.131 1.528 1.681-1.419 2.982-3.922 5.433-.922.235.289 1.331-.126 2.027-.214-.281-.543-.738-1.062-.816-1.633-.439-3.228-2.392-3.298-4.711-2.202-1.509.712-2.859 1.761-5.064 3.443Zm-247.919-7.845c-.007.789-3.221 1.717-.182 2.239 3.039.521 6.239.16 9.366.072.555-.016 1.095-.586 1.642-.9-.553-.553-1.056-1.515-1.667-1.589-2.775-.339-5.58-.428-9.159.178Zm80.809-40.013c-1.307.392-3.583.543-3.75 1.218-.63 2.536 1.584 1.809 2.962 1.914.513.04 1.032.032 1.546.003 2.514-.143 5.028-.299 7.542-.451-2.244-.894-4.487-1.789-8.3-2.684ZM67.983 386.46l2.355-1.181c-.527-.653-1.164-1.917-1.56-1.846-1.368.247-2.797.751-3.936 1.541-1.971 1.365-3.273 3.177-1.993 5.766 1.269-.984 2.54-1.964 3.804-2.955.2-.157.365-.359 1.33-1.325Zm19.615 21.183 4.49-3.354c-1.468-.19-2.932-.456-4.407-.547a32.178 32.178 0 0 0-4.637.024c-.531.044-1.02.608-1.526.935.434.196.862.408 1.304.586 1.328.531 2.66 1.049 4.776 2.356Zm327.158-36.874-3.696 1.011c2.281 1.233 4.513 2.578 6.883 3.607.516.225 1.524-.684 2.305-1.071-.509-.659-.937-1.41-1.549-1.953-.706-.627-1.575-1.071-3.943-1.594Zm-227.52 18.83c.784 0 1.65.217 2.335-.044 1.576-.601 3.064-1.433 4.587-2.171-1.392.215-2.78.47-4.179.63-.774.088-1.988.343-2.283-.037-2.047-2.636-3.879 1.004-5.852.117-.279-.126-.948.614-1.436.953.707.184 1.407.465 2.125.528 1.037.091 2.089.024 4.703.024ZM66.415 408.428l2.096-.527c-.199-.348-.381-.984-.6-.996-1.537-.087-3.1-.191-4.621-.009-1.852.221-3.674.708-5.49 1.154-.041.009.153 1.33.209 1.328 2.1-.083 4.196-.236 6.29-.426.196-.018.365-.342 2.116-.524Zm160.049-40.797 6.742-2.672c-2.508-.156-5.015-.322-7.523-.46-.769-.042-1.68-.255-2.271.071-.486.269-.986 1.607-.799 1.797.587.593 1.497.867 3.851 1.264Zm7.845-9.415c.026 1.047-.053 2.985.095 3.003 1.779.21 3.6.229 5.392.08.553-.046 1.051-.751 1.574-1.155-.542-.642-.986-1.679-1.646-1.842-1.215-.3-2.557-.086-5.415-.086Zm183.586 53.35c.518 0 1.042.05 1.553-.01 1.227-.142 2.448-.336 3.672-.508-1.075-.73-2.117-1.514-3.233-2.173-1.24-.732-2.5-1.489-3.849-1.947-.534-.181-1.331.415-2.008.657.358.804.566 1.741 1.122 2.369.424.479 1.289.566 2.743 1.612Zm-288.716-4.707c-2.369-2.377-4.879-2.183-7.45-.378-.42.295-.744.726-1.113 1.095 2.182.284 4.358.677 6.549.8.917.051 1.865-.471 2.014-1.517Zm158.48-12.553c-.509 0-1.1-.168-1.513.031-1.279.615-2.49 1.37-3.727 2.071 1.216.345 2.416.796 3.656 1.003.99.165 2.051.157 3.043-.007.787-.13 1.516-.612 2.27-.938-.72-.72-1.44-1.44-3.729-2.16Zm-148.281-.785c-.259 4.585 1.913.912 2.81.717 1.21-.263 2.316-1.006 3.467-1.542-1.178-.51-2.318-1.244-3.547-1.451-.846-.142-1.815.446-2.73 2.276Zm-18.829-29.813c-1.185.262-2.399.442-3.536.839-.308.107-.631 1.212-.534 1.282 2.11 1.508 6.392-.371 7.148-3.155.044-.162-.809-.822-1.187-.776-.404.049-.741.66-1.891 1.81Zm132.589 18.045c.18-.18.405-.335.524-.549.072-.131.01-.5-.039-.51-1.895-.356-4.283-.09-5.578-1.156-1.838-1.511-1.972.264-2.818.712.586.501 1.124 1.342 1.769 1.435 1.497.215 3.046.068 6.142.068Zm-91.008 10.984c.252 0 .508.031.754-.005 2.103-.305 4.207-.609 6.296-.997.067-.012-.034-.926-.056-1.419-1.947.284-3.901.527-5.837.874-.671.12-1.295.501-1.157 1.547Zm150.634-25.106c1.312 1.573 2.667 2.551 4.329.392.315-.409.728-.741 1.096-1.109-1.398-.284-2.786-.687-4.198-.799-.647-.051-1.339.47-1.227 1.516Zm-100.422 28.244c1.307-.372 2.625-.716 3.901-1.175.093-.033-.115-.903-.183-1.384-1.233.324-2.515.529-3.679 1.017-.639.268-1.079 1.012-.039 1.542Zm26.675-15.691c.179-.179.402-.334.521-.547.073-.13.042-.474-.036-.509-.856-.377-1.726-.981-2.602-.998-1.403-.027-2.821.306-4.211.59-.19.038-.258.672-.383 1.03 1.207.145 2.413.306 3.622.426.502.049 1.013.008 3.089.008Zm72.178-4.707-2.353 1.894 1.488 1.244c.812-1.046 1.623-2.092.865-3.138Zm-14.122-7.846 5.333-2.194c-.284-.315-.695-.95-.831-.895-1.785.711-3.531 1.52-4.502 3.089ZM127.61 442.948l-2.067.498 3.636 2.64c0-1.046 0-2.092-1.569-3.138Zm-54.134-52.565c-.182-.182-.339-.41-.556-.528-.13-.072-.468-.034-.519.06a60.82 60.82 0 0 0-1.89 3.75c-.01.024 1.083.692 1.17.599.917-.978 1.734-2.05 1.795-3.881Zm236.15.785-6.936.909c2.395.137 4.79.285 7.187.386.171.007.356-.332-.251-1.295Zm-183.585 0-2.029 2.678 3.598.46c0-1.046 0-2.092-1.569-3.138Zm-14.122-7.846-5.365.912c1.873.134 3.746.283 5.621.378.167.009.352-.329-.256-1.29Zm68.256-8.63c-2.123-2.119-3.067.136-4.284 1.212-.123.108.18.699.286 1.066 1.071-.498 2.142-.995 3.998-2.278Zm185.939 10.199c-.551-.495-1.562-1.446-1.587-1.421-2.121 2.146.361 2.958 1.278 4.25.365-.681.729-1.363.309-2.829Zm25.106-23.536-2.354 1.8 1.338 1.338c.6-.785 1.2-1.569 1.016-3.138Zm22.752 57.272c1.046-.007 2.094.004 3.132-.087.044-.004.044-1.391 0-1.395-1.038-.091-2.086-.08-3.132 1.482Zm20.398-12.553c-.178-.178-.333-.4-.545-.519-.13-.074-.504.006-.504.022-.024 1.377-.022 2.755-.022 4.133l2.602-.459c-.51-.536-1.02-1.072-1.531-3.177Zm-13.337-.784 5.364-.912c-1.873-.134-3.745-.283-5.62-.378-.167-.009-.352.328.256 1.29Zm-26.675-7.846-2.088.519h5.745c-.696-.173-1.392-.346-3.657-.519Zm-298.13-15.691c.768 0 1.565.128 2.293-.044.508-.119.92-.648 1.376-.994-.967-1.14-3.704-.597-3.67 1.038Zm277.732 20.398-2.089.52h5.746c-.696-.174-1.392-.347-3.657-.52Zm-201.631-19.613c1.047-.008 2.094.003 3.133-.087.044-.004.044-1.392 0-1.396-1.039-.09-2.086-.079-3.133 1.483ZM417.11 396.66l-.426-1.995-2.354 2.353c.665.142 1.33.284 2.78-.358Zm13.337-.785c-.17.171-.376.319-.499.52-.079.129-.035.333-.046.503l2.899-.407c-.523-.467-1.046-.934-2.354-.616ZM148.008 265.639l1.984-.414c-.092-.339-.242-.978-.268-.973-.841.162-1.67.387-1.716 1.387Zm38.443 82.378c-.83-.215-1.659-.44-2.5-.603-.026-.005-.176.634-.268.973.661.138 1.323.277 2.768-.37Zm10.984 4.708c.831.215 1.66.44 2.5.602.026.006.176-.634.269-.972-.662-.138-1.323-.277-2.769.37Zm51.781 3.138c-.831-.216-1.66-.44-2.501-.603-.025-.005-.175.634-.268.973.662.138 1.323.276 2.769-.37Zm22.752 7.061-1.984.414c.092.339.242.978.268.973.841-.163 1.67-.387 1.716-1.387Zm30.597 11.768c-.83-.215-1.659-.44-2.5-.603-.026-.005-.176.634-.268.973.661.138 1.322.276 2.768-.37Zm-41.581 2.354-1.984.414c.092.339.243.978.268.973.841-.162 1.67-.387 1.716-1.387ZM443 414.704l-.784-1.569c-.262.523-.523 1.046.784 1.569Zm-48.642-32.951.785 1.569c.261-.523.523-1.046-.785-1.569Zm-259.687 11.768c-.831-.215-1.66-.44-2.5-.602-.026-.005-.176.633-.268.972.661.138 1.322.277 2.768-.37Zm294.207-7.061c-.215.831-.44 1.66-.602 2.501-.005.025.633.175.972.268.138-.662.277-1.323-.37-2.769Zm-371.093-.784c.83.215 1.66.44 2.5.603.026.005.176-.634.268-.973-.661-.138-1.322-.277-2.768.37Zm83.162 59.626-.941-.628c.052.471.105.942.941.628Zm223.598-41.581.628-.942c-.471.052-.942.105-.628.942Zm-228.305-.785-.941-.628c.052.471.104.942.941.628Zm186.724-9.415.941.628c-.052-.471-.105-.942-.941-.628Zm-145.927 0 .941.628c-.052-.471-.104-.942-.941-.628Zm-6.277-6.276.942.628c-.053-.471-.105-.942-.942-.628Zm47.074-1.569-.942-.628c.052.471.105.942.942.628Zm-56.488 0-.942-.628c.053.471.105.942.942.628Zm263.61-1.569-.942-.628c.052.471.105.942.942.628Zm-294.992 0-.942-.628c.053.471.105.942.942.628Zm75.317-1.569.941.627c-.052-.47-.104-.941-.941-.627Zm50.211-6.277.942.628c-.053-.471-.105-.942-.942-.628Zm65.903-7.845-.942-.628c.052.471.105.941.942.628Zm-178.879 0 .942.627c-.052-.47-.105-.941-.942-.627Zm68.257-13.338-.628.942c.471-.053.941-.105.628-.942Zm-8.631.785.942.627c-.052-.47-.105-.941-.942-.627Zm83.163-3.138.942.627c-.053-.47-.105-.941-.942-.627Zm-104.345-.785-.628.942c.471-.053.941-.105.628-.942Z"/><path d="M413.971 312.712c.232 6.51-4.463 8.217-8.272 10.339-.749.418-3.559-1.209-4.122-2.471-1.071-2.4-1.871-5.29-1.589-7.845.588-5.338 2.057-10.573 2.964-15.884.653-3.816 2.647-5.408 6.232-4.537 2.731.664 4.447 3.703 3.843 6.475-.37 1.7-1.248 4.233-.472 5.066 2.4 2.578.978 5.412 1.416 8.857Zm-6.276.785c-.388-1.308-.643-3.68-1.186-3.748-3.274-.411-1.745 2.289-1.897 3.713-.296 2.765.936 3.214 3.083.035ZM272.36 244.849c.392-.91.185-1.74.423-1.898 3.577-2.371 5.974.534 8.409 2.244 1.642 1.153 3.949 2.428 1.388 5.471-1.106 1.314-.429 4.404-.073 6.607.508 3.139-.616 6.959-2.061 8.426-3.194 3.241-6.453.334-8.573-.672-2.407-1.142-4.958-4.121-2.466-8.465 1.839-3.208 1.776-7.508 2.953-11.713Zm1.961 12.16.48 3.618c2.193-.675 3.002-2.252 2.636-4.391-.411-2.412-1.734-1.861-3.116.773ZM395.142 242.103c6.271 4.286 9.278 13.496 7.343 20.112-.338 1.157-.837 2.282-1.034 3.46-.234 1.393.591 3.131-2.061 3.169-2.476.035-5.33-.21-5.665-2.665-.957-6.999-1.293-14.091-1.608-21.159-.042-.937 1.456-1.943 3.025-2.917ZM346.5 213.859c-.524 1.874-1.365 2.926-1.5 4.062-.245 2.062.448 4.356-.21 6.214-.71 2.007-2.21 4.205-3.988 5.152-.799.426-3.796-1.62-4.619-3.17-4.104-7.727-1.926-17.479 3.81-19.285 2.872-.904 4.578-1.432 5.404 1.996.343 1.421.734 2.831 1.103 5.031ZM229.209 254.263c1.7 2.969 3.379 5.433 4.196 8.157.637 2.124.698 5.329-2.026 5.918-2.439.527-5.976.32-7.689-1.137-2.736-2.329-6.371-5.334-2.994-10.053.624-.873.319-2.493.253-3.758-.136-2.58.475-4.714 3.41-4.971 3.953-.345 4.625 2.277 4.85 5.844ZM368.467 271.916c-.114 2.651.874 5.117-2.747 4.759-2.72-.268-6.037.635-6.593-3.3-.423-2.997-.03-5.671 2.418-8.399 1.247-1.39-.972-5.472-.488-8.129.269-1.474 3.721-3.867 4.281-3.516 1.915 1.198 4.341 3.357 4.46 5.279.254 4.131-.808 8.343-1.331 13.306ZM338.654 267.208c1.488.18 2.8.345 2.804.541.135 5.741 1.313 11.504-1.167 17.149-1.701 3.871-3.165 5.174-6.463 4.278-2.445-.664-4.751-4.923-4.033-7.585.183-.678 1.02-1.313.956-1.902-.375-3.421.042-6.095 3.763-7.78 1.517-.686 2.261-3.082 4.14-4.701ZM246.469 295.845c5.435-2.584 7.482-1.854 7.325 2.664-.119 3.423 1.762 7.277-1.436 10.322-1.481 1.411-2.736 3.142-4.412 4.243-1.698 1.116-4.9-.567-4.969-2.478-.18-5.026-.367-10.101 3.492-14.751ZM286.874 284.469c1.352.523 1.944 1.022 2.482 1.573 1.798 1.842 5.426 4.688 5.051 5.39-1.858 3.487.104 8.362-4.138 10.899-2.499 1.495-5.158 1.146-6.489-1.343-1.672-3.124-.333-12.698 3.094-16.519ZM239.408 210.328c1.604-1.7 2.815-3.007 4.026-4.315.881 1.381 2.392 2.704 2.523 4.153.381 4.195.789 8.618-1.661 12.353-.793 1.208-3.196 2.484-4.283 2.097-1.419-.505-2.845-2.489-3.231-4.088-.842-3.481.186-6.831 2.626-10.2ZM192.728 301.729c-3.628-4.094-4.156-10.117-1.478-13.054 1.006-1.103 3.12-1.862 4.603-1.689 1.699.198 4 .787 3.216 3.857-.766 2.998 2.437 6.532-.851 9.187-1.226.99-3.118 1.156-5.49 1.699ZM300.995 201.306c.942 1.412 1.227 2.823 1.228 4.235.002 2.302-.976 4.985-.098 6.816 1.281 2.669-.727 4.074-1.721 4.199-1.679.213-4.087-.448-5.187-1.655-1.786-1.96-.183-11.795 1.931-13.516.627-.511 2.02-.079 3.847-.079Z"/></svg>