<svg width="534" height="534" viewBox="0 0 534 534" xmlns="http://www.w3.org/2000/svg"><path d="M232.922 253.611c-4.359 9.378-12.041 14.966-19.549 20.642-3.632 2.746-7.744 4.853-11.524 7.42-.865.588-1.611 1.838-1.72 2.858-.062.571 1.223 1.755 2.023 1.878 8.427 1.301 16.505 4.721 25.318 3.817 2.987-.306 4.545-1.174 4.213-4.231-.399-3.686 1.348-6.296 3.779-8.815 3.164-3.279 6.011-6.86 9.107-10.207 3.887-4.203 8.123-7.965 13.174-10.829 3.645-2.067 7.021-1.691 9.224 1.617 2.906 4.364 2.358 8.86.034 13.115-1.38 2.526-3.333 4.806-5.322 6.921-3.732 3.966-7.703 7.706-11.508 11.605-.636.651-1.518 2.001-1.275 2.379.566.878 1.791 1.962 2.674 1.899 3.869-.273 7.715-.905 11.563-1.445 6.249-.876 11.72-4.13 17.718-5.818 4.285-1.206 5.926-3.65 5.688-8.284-.373-7.273 4.157-11.862 8.571-16.559 1.611-1.714 3.016-3.659 6.037-3.168 3.071.498 8.189 5.72 8.623 9.38.639 5.398-1.572 9.491-5.842 12.596-2.171 1.579-4.415 3.058-6.646 4.552-2.746 1.841-2.538 4.003-.955 6.537 2.186 3.5 5.249 4.906 9.34 4.796 3.75-.101 6.433-1.108 8.4-4.762 2.256-4.191 4.413-8.515 7.967-12.001 1.624-1.594 2.077-4.356 3.13-6.555 5.517-11.517 10.479-23.272 14.615-35.346 3.596-10.498 6.644-21.185 10.339-31.647 1.427-4.039 3.789-7.794 6.039-11.489 3.855-6.329 6.964-13.038 11.553-19.019 6.452-8.409 14.295-14.654 23.504-19.723 7.377-4.061 14.909-6.195 23.311-5.638 4.048.269 8.135.185 12.192.003 3.315-.149 6.04.684 8.598 2.901 2.914 2.525 6.27 4.537 9.241 7.003.928.77 1.775 2.308 1.733 3.461-.206 5.723.063 11.634-1.329 17.1-1.711 6.722-2.426 13.822-5.9 20.05-.552.99-.887 2.317-1.731 2.891-2.978 2.027-6.046 3.966-9.252 5.601-2.347 1.196-4.595 1.039-7.062-.756-9.868-7.177-19.236-2.719-24.67 4.978-4.096 5.802-5.881 12.595-8.457 19.031-4.67 11.666-8.956 23.485-13.489 35.206-3.205 8.288-8.403 15.626-11.969 23.665-3.873 8.729-8.534 17.461-8.72 27.42-.121 6.479 5.553 10.284 11.983 8.944 4.161-.866 8.418-1.62 12.88-.027 3.402 1.213 7.385.7 10.94 1.613 5.972 1.534 8.194 6.06 6.487 11.87-1.967 6.702-3.829 13.434-5.715 20.159-.106.376.157.938-.039 1.193-3.09 4.011-5.976 8.231-9.5 11.825-1.12 1.143-4.239 1.318-5.967.671-3.16-1.183-5.237-.874-8.044 1.225-7.436 5.561-16.086 7.898-25.406 7.771-5.894-.079-11.822.372-17.677-.114-7.027-.583-14.117-1.701-20.014-6.032-4.527-3.326-7.9-7.319-7.415-13.69.26-3.424 1.215-7.179-1.093-10.442 1.628-5.606.045-11.529 1.73-17.143.762-2.539 1.833-5.15 1.824-7.726-.023-6.553 3.044-12.141 5.053-18.046.847-2.491.798-3.97-1.967-4.856-1.777-.569-3.41-1.571-5.139-2.304-4.042-1.713-6.958-4.689-8.747-8.549-1.312-2.832-2.531-2.361-4.936-1.293-7.031 3.121-14.347 5.604-21.369 8.745-3.554 1.591-6.542 1.129-10.06-.016-5.559-1.808-11.561-2.095-16.893-4.897-1.114-.586-3.015-.547-4.187-.006-5.036 2.323-9.951 1.055-14.879-.099-4.802-1.126-9.699-2.051-14.305-3.742-4.036-1.482-7.725-3.906-11.569-5.91-.835-.436-1.65-1.157-2.521-1.236-5.514-.502-11.04-.902-16.567-1.255-5.629-.359-10.967-1.574-15.667-4.877-.624-.438-1.658-.692-1.866-1.262-2.263-6.21-7.251-6.436-12.683-6.068-11.06.75-21.67-1.454-31.537-6.244-3.083-1.496-5.442-4.892-7.533-7.841-1.11-1.567-1.522-4.128-1.225-6.086.664-4.383-1.93-5.501-5.236-6.202-2.816-.597-5.657-1.524-8.485-1.515-6.818.022-12.35-2.811-17.173-7.151-4.195-3.777-8.041-7.94-12.041-11.933-.288-.287-.79-.546-.831-.865-1.018-7.789-7.89-11.043-12.484-16.037-3.954-4.299-6.989-8.928-8.836-14.639-.99-3.058-1.276-6.051-.721-8.699 1.267-6.044 2.26-12.24 6.332-17.475 2.125-2.732 2.961-6.446 4.482-9.668 1.56-3.306 4.983-4.144 7.962-4.742 2.268-.455 5.073-1.21 7.41 1.056 1.88 1.824 2.124 3 .014 4.751-3.665 3.042-7.32 6.125-10.699 9.472-5.532 5.481-8.464 17.475-5.862 24.5 2.074 5.595 5.85 10.146 10.741 13.547 3.427 2.383 4.427 1.902 6.521-2.022 5.356-10.034 13.745-16.515 24.22-20.494 6.252-2.376 12.372-2.509 17.778 2.079 4.661 3.956 5.418 7.72 2.529 14.066-2.026 4.45-4.149 9.003-7.1 12.843-2.634 3.428-6.533 6.272-10.955 6.838-6.099.781-12.287 3.071-18.526.219-.84-.384-2.196.36-3.312.581.444.831.862 1.677 1.337 2.49 3.598 6.152 9.226 9.106 15.76 11.737 5.417 2.182 10.507 3.923 16.279 3.315.706-.074 1.97-1.027 1.902-1.338-1.24-5.645 2.727-9.471 5.599-12.88 6.105-7.245 12.685-14.359 20.17-20.099 7.324-5.616 13.975-4.965 18.292 5.815 1.89 4.721.892 8.18-2.284 12.14-5.479 6.831-11.307 13.127-18.986 17.415-3.426 1.913-7.147 3.341-10.823 4.759-4.789 1.847-5.831 4.349-3.679 9.138 2.604 5.792 7.842 8.471 13.217 10.537 3.874 1.489 8.347 2.763 12.317 2.265 3.501-.44 7.059-.413 10.477-1.087 1.319-.26 3.306-2.553 3.191-3.747-.641-6.642 3.319-11.404 6.53-16.229 4.719-7.091 10.032-13.82 15.485-20.378 3.099-3.728 7.762-5.521 12.351-6.807 1.326-.372 3.658.551 4.634 1.662 2.566 2.921 4.762 6.487 3.782 10.509-2.556 10.49-7.432 19.578-16.734 25.875-3.253 2.202-6.001 5.138-9.035 7.673-1.636 1.367-3.211 3.107-5.13 3.771-3.131 1.085-2.667 2.74-.934 4.198 2.162 1.819 4.605 3.665 7.243 4.482 5.567 1.725 11.273 3.264 17.249 2.55 1.047-.125 2.503.616 2.568-1.463.197-6.287 4.208-10.953 7.401-15.776 5.209-7.869 11.714-14.58 20.554-18.621 3.665-1.676 7.477-2.228 11.418-1.853 5.933.566 9.302 6.242 6.956 12.152Zm153.69-84.608c-5.638 2.912-8.688 8.203-11.965 13.212-4.265 6.521-9.151 12.824-12.22 19.89-4.102 9.443-6.501 19.607-10.021 29.32-4.664 12.866-9.484 25.686-14.679 38.345-2.561 6.24-6.256 12.007-9.159 18.12-1.446 3.045-3.421 5.527-5.577 8.071-3.479 4.103-7.078 8.343-9.426 13.114-4.614 9.376-7.838 19.372-8.585 29.872-.488 6.861-.351 13.797-.024 20.677.381 8.042 2.853 10.9 10.678 13.252 2.193.659 4.552 1.289 6.794 1.167 5.165-.28 10.507-.245 15.394.488 4.418.663 8.383.686 12.446-.451 4.645-1.301 9.534-2.669 12.236-7.069 1.944-3.165 3.151-6.793 4.578-10.259 2.284-5.546 4.476-11.129 6.713-16.695.349-.867.729-1.721 1.094-2.582-.981-.148-1.968-.444-2.942-.408-1.348.05-2.706.599-4.025.493-3.095-.249-6.171-1.106-9.252-1.09-5.076.027-9.294-1.814-12.221-5.671-2.941-3.874-3.76-9.1-3.223-13.493.905-7.414 4.064-14.433 7.492-21.159 9.472-18.582 18.929-37.179 24.516-57.397 2.993-10.828 8.099-20.621 13.787-30.208 4.715-7.947 11.35-12.901 20.647-13.784 2.738-.26 5.555.427 8.326.341 1.231-.038 2.918-.578 3.551-1.481 1.268-1.812 2.412-3.949 2.796-6.097 1.271-7.114 3.264-13.968 5.848-20.72 1.746-4.561-.489-7.535-5.344-8.165-2.284-.296-4.544-1.123-6.812-1.109-2.475.014-4.953.688-7.418 1.137-2.636.481-5.471.57-7.843 1.653-5.308 2.421-10.381 5.353-16.16 8.686ZM98.748 199.437c0-1.013.022-2.026-.004-3.039-.113-4.402-1.727-5.777-6.026-6.156-4.23-.373-7.2 2.183-10.697 3.656-8.118 3.421-12.402 10.164-15.97 17.587-.185.385.607 1.762 1.124 1.878 4.424.989 13.334 1.053 17.23.021 1.786-.474 3.875-1.111 5.035-2.389 3.127-3.444 5.828-7.273 9.308-11.558Zm75.016 31.044c-3.873 5.488-7.815 10.93-11.591 16.484-2.02 2.972-4.035 6.011-5.501 9.268-.72 1.599-.183 3.762-.216 5.669 1.268-.705 2.52-1.44 3.812-2.096.325-.164.895.072 1.154-.13 8.214-6.421 16.373-12.943 20.581-22.896 1.092-2.584 1.833-5.456 2.012-8.242.161-2.519-2.422-3.795-4.526-2.496-1.806 1.115-3.418 2.541-5.725 4.439Zm21.955 38.956c-.203 1.335-.655 2.688-.56 4.002.222 3.069 1.728 3.857 4.493 2.036 5.298-3.488 10.602-7.021 15.53-10.996 3.744-3.02 6.991-6.679 10.275-10.223.82-.885 1.653-2.899 1.215-3.564-.893-1.356-2.533-2.694-4.078-3.012-1.512-.311-3.367.46-4.935 1.093-9.701 3.916-15.894 11.594-21.94 20.664Zm-59.158-60.261c-2.748-.957-4.881-.647-7.568 1.22-6.971 4.844-11.995 11.299-16.782 18.03-1.513 2.128-2.678 4.565-3.636 7.003-.631 1.603.322 2.981 2.147 2.295a98.481 98.481 0 0 0 10.297-4.566c5.444-2.798 9.381-7.47 13.083-12.068 2.25-2.795 5.898-6.197 2.459-11.914Zm105.509 76.087c3.67.048 5.19-3.131 7.689-4.759 5.282-3.44 7.132-8.711 9.974-13.537.549-.933.788-2.05 1.17-3.082-1.341-.178-2.746-.686-4.005-.441-1.221.238-2.519 1.033-3.389 1.955-4.493 4.757-9.011 9.507-13.162 14.554-1.052 1.279-2.628 3.84 1.723 5.31Zm52.45-6.087c.851-.85 1.779-1.637 2.537-2.563 1.333-1.627 2.88-3.197 3.723-5.066.55-1.221.015-2.928-.034-4.418-1.35.046-3.786-.192-3.884.18-1.047 4.001-5.905 6.91-2.342 11.867ZM498.83 151.351c2.103 1.877.966 3.105-.262 4.591-3.843 4.648-9.323 6.504-14.554 8.772-2.734 1.186-5.533 2.348-8.42 3.018-1.933.448-4.416.678-6.047-.163-3.493-1.801-2.954-6.701.848-8.858 1.428-.811 3.199-1.056 4.84-1.448 4.963-1.188 9.954-2.263 14.905-3.501 2.724-.681 5.389-1.6 8.69-2.411ZM468.336 201.263c7.994-.019 14.057 3.666 19.985 7.322 3.298 2.034 3.522 5.856 3.189 9.502-.168 1.844-1.024 1.716-2.357.953-1.454-.832-3.389-1.098-4.495-2.218-4.407-4.465-10.322-4.504-15.813-5.814-1.845-.44-3.77-.633-5.541-1.266-2.688-.96-3.2-3.488-.955-5.431 1.527-1.321 3.566-2.052 5.987-3.048ZM482.973 189.09c-4.133.811-7.642 1.691-11.185 2.407-1.868.377-4.004.03-4.509-1.891-.302-1.147.724-2.955 1.647-4.052 2.906-3.453 7.02-4.731 11.307-4.91 4.503-.188 8.857-.406 13.088-2.32 1.432-.648 3.485.07 5.254.164-.835 1.815-1.221 4.141-2.594 5.343-3.474 3.041-7.71 4.809-13.008 5.259Z"/></svg>