<svg width="16" height="8" viewBox="0 0 16 8" fill="none" xmlns="http://www.w3.org/2000/svg"><path d="M8.7089 7.65105L14.8704 2.02908C15.1112 1.80937 15.2528 1.51212 15.2528 1.18902C15.2528 0.865913 15.1112 0.56866 14.8704 0.348951C14.6296 0.129241 14.3038 0 13.9497 0C13.5956 0 13.2698 0.129241 13.029 0.348951L7.75989 5.1567L2.49077 0.348951C2.24998 0.129241 1.9242 0 1.57009 0C1.21598 0 0.890202 0.129241 0.649409 0.336026C0.380287 0.568659 0.252808 0.878837 0.252808 1.18902C0.252808 1.48627 0.380286 1.78352 0.621079 2.02908C2.23581 3.51535 6.42844 7.3538 6.71173 7.6252L6.74006 7.65105C7.24998 8.11632 8.19898 8.11632 8.7089 7.65105Z" fill="#4C4F5A"/></svg>