<svg width="16" height="16" viewBox="0 0 16 16" fill="none" xmlns="http://www.w3.org/2000/svg"><path d="M14.9999 6.675L13.1999 6.075C12.9999 5.975 12.8999 5.775 12.9999 5.675L13.8999 3.975C14.4999 2.775 13.1999 1.475 11.9999 2.075L10.2999 2.975C10.1999 3.075 9.9999 2.975 9.8999 2.775L9.2999 0.975C8.8999 -0.325 7.0999 -0.325 6.6999 0.975L6.0999 2.775C5.9999 2.975 5.7999 3.075 5.6999 2.975L3.9999 2.075C2.7999 1.475 1.4999 2.775 2.0999 3.975L2.9999 5.675C3.0999 5.775 2.9999 5.975 2.7999 6.075L0.999902 6.675C-0.300098 7.075 -0.300098 8.975 0.999902 9.375L2.7999 9.975C2.9999 9.975 3.0999 10.175 2.9999 10.275L2.0999 11.975C1.4999 13.175 2.7999 14.475 3.9999 13.875L5.6999 12.975C5.8999 12.875 6.0999 12.975 6.0999 13.175L6.6999 14.975C7.0999 16.275 8.9999 16.275 9.3999 14.975L9.9999 13.175C10.0999 12.975 10.2999 12.875 10.3999 12.975L12.0999 13.875C13.2999 14.475 14.5999 13.175 13.9999 11.975L12.9999 10.275C12.8999 10.075 12.9999 9.875 13.1999 9.875L14.9999 9.275C16.2999 8.875 16.2999 7.075 14.9999 6.675ZM7.9999 10.375C6.6999 10.375 5.5999 9.275 5.5999 7.975C5.5999 6.675 6.6999 5.575 7.9999 5.575C9.2999 5.575 10.3999 6.675 10.3999 7.975C10.3999 9.275 9.2999 10.375 7.9999 10.375Z" fill="#4C4F5A"/></svg>